<?xml version="1.0" encoding="utf-8"?>
<!-- Generator: Adobe Illustrator 18.1.1, SVG Export Plug-In . SVG Version: 6.00 Build 0)  -->
<!DOCTYPE svg PUBLIC "-//W3C//DTD SVG 1.1//EN" "http://www.w3.org/Graphics/SVG/1.1/DTD/svg11.dtd">
<svg version="1.1" id="Layer_1" xmlns="http://www.w3.org/2000/svg" xmlns:xlink="http://www.w3.org/1999/xlink" x="0px" y="0px"
	 viewBox="0 0 106.1 91.5" enable-background="new 0 0 106.1 91.5" xml:space="preserve">
<g>
	<g>
		<path fill="#FFFFFF" d="M84.4,91.5c-2.2,0-4.2-0.4-6.2-1.3c-8.1-3.5-15.3-8.8-20.9-15.6c-1.4,0.1-2.8,0.2-4.3,0.2
			c-1.4,0-2.9-0.1-4.3-0.2c-5.6,6.8-12.7,12.1-20.9,15.6c-1.9,0.8-4,1.2-6.1,1.2c-6.3,0-12-3.8-14.5-9.6c-3.4-8,0.4-17.2,8.3-20.6
			c0.3-0.1,0.6-0.3,0.9-0.4c-6-5.4-10.9-12.1-14.1-19.6C-0.7,34-0.8,25.9,2.2,18.6c3-7.3,8.6-13.1,15.9-16.2C21.8,0.8,25.7,0,29.7,0
			C38.9,0,47.5,4.3,53,11.4c3.2-4,7.3-7.2,12.2-9.2C68.8,0.7,72.6,0,76.4,0c4,0,7.9,0.8,11.6,2.4c7.3,3.1,12.9,8.8,15.9,16.2
			c3,7.3,2.9,15.4-0.2,22.7c-3.2,7.6-8,14.3-14.1,19.6c0.3,0.1,0.6,0.3,0.9,0.4c3.9,1.6,6.9,4.7,8.4,8.6c1.6,3.9,1.5,8.2-0.1,12
			C96.4,87.7,90.7,91.5,84.4,91.5z"/>
		<g>
			<g>
				<path fill="#FACB34" d="M89.2,77.8c-0.8,2-2.8,3.2-4.8,3.2c-0.7,0-1.4-0.1-2-0.4C74,77.1,66.9,71,62.1,63.4
					c1.2-0.2,5.2-1.3,7.7-2.3c0.9-0.4,1.8-0.8,2.6-1.2c3.6,4.8,8.4,8.7,14,11C89.1,72.1,90.3,75.2,89.2,77.8z"/>
			</g>
			<g>
				<path fill="#F15745" d="M94.2,22.5C92.3,17.7,88.6,14,83.9,12c-4.7-2-9.9-2.1-14.7-0.1c-4.7,1.9-8.5,5.6-10.5,10.3
					c-4.3,10-4.7,21.2-1.3,31.4c-2.9,0.4-5.9,0.4-8.8,0c-1.1,3.4-2.7,6.8-4.7,9.8c3,0.6,6,0.9,9.1,0.9c3,0,6.1-0.3,9-0.9
					c1.2-0.2,5.2-1.3,7.7-2.3c0.9-0.4,1.8-0.8,2.6-1.2c9.8-4.7,17.4-12.7,21.7-22.7C96.1,32.5,96.1,27.3,94.2,22.5z M84.4,33.1
					c-3.3,7.8-9.3,14-16.9,17.5c-2.7-7.9-2.4-16.6,0.9-24.4c0.9-2.1,2.6-3.8,4.8-4.7c1.1-0.4,2.2-0.6,3.3-0.6c1.2,0,2.3,0.2,3.4,0.7
					c2.1,0.9,3.8,2.6,4.7,4.8C85.3,28.6,85.3,31,84.4,33.1z"/>
			</g>
			<g>
				<path fill="#14A2B7" d="M47.4,22.2C43.2,12.5,31.9,7.9,22.2,12c-4.7,2-8.4,5.7-10.3,10.5S10,32.5,12,37.2
					c4.3,10,12,18.1,21.7,22.7c-3.5,4.7-8.2,8.6-14,11c-2.7,1.1-3.9,4.2-2.8,6.9c0.8,2,2.8,3.2,4.8,3.2c0.7,0,1.4-0.1,2-0.4
					c8.7-3.7,15.6-9.8,20.2-17.2c2-3.1,3.5-6.4,4.7-9.8C51.9,43.7,51.8,32.5,47.4,22.2z M21.7,33.1c-0.9-2.1-0.9-4.5-0.1-6.7
					c0.9-2.2,2.5-3.8,4.7-4.8c1.1-0.5,2.3-0.7,3.4-0.7c3.4,0,6.6,2,8,5.3c3.4,8,3.5,16.7,0.9,24.3C31,47.1,25,40.9,21.7,33.1z"/>
			</g>
		</g>
	</g>
</g>
</svg>
